
<global>
amp_veltrack=0
ampeg_release=0.65
</global>

<group>
group_label=PP
seq_length=1
seq_position=1
xf_cccurve=gain
xfin_hicc1=42
xfout_hicc1=85
xfout_locc1=42

<region>
hikey=f6
hivel=127
lokey=e6
loop_end=308522
loop_mode=loop_continuous
loop_start=76372
loop_xfade=23062
lovel=0
offset=18655
pitch_keycenter=f6
release_start=300000
release_xfade=8000
sample=Violins2_trill_half_PP_G6.opus
</region>

<region>
hikey=f5
hivel=127
lokey=e5
loop_end=308522
loop_mode=loop_continuous
loop_start=76372
loop_xfade=23062
lovel=0
offset=24328
pitch_keycenter=f5
release_start=300000
release_xfade=8000
sample=Violins2_trill_half_PP_G5.opus
</region>

<region>
hikey=f4
hivel=127
lokey=e4
loop_end=307598
loop_mode=loop_continuous
loop_start=76143
loop_xfade=22993
lovel=0
offset=16286
pitch_keycenter=f4
release_start=300000
release_xfade=8000
sample=Violins2_trill_half_PP_G4.opus
</region>

<region>
hikey=d#6
hivel=127
lokey=d6
loop_end=308522
loop_mode=loop_continuous
loop_start=76372
loop_xfade=23062
lovel=0
offset=19641
pitch_keycenter=d#6
release_start=300000
release_xfade=8000
sample=Violins2_trill_half_PP_F6.opus
</region>

<region>
hikey=d#5
hivel=127
lokey=d5
loop_end=308522
loop_mode=loop_continuous
loop_start=76372
loop_xfade=23062
lovel=0
offset=27288
pitch_keycenter=d#5
release_start=300000
release_xfade=8000
sample=Violins2_trill_half_PP_F5.opus
</region>

<region>
hikey=d#4
hivel=127
lokey=d4
loop_end=297888
loop_mode=loop_continuous
loop_start=73740
loop_xfade=22267
lovel=0
offset=11120
pitch_keycenter=d#4
release_start=300000
release_xfade=8000
sample=Violins2_trill_half_PP_F4.opus
</region>

<region>
hikey=c#6
hivel=127
lokey=c6
loop_end=308522
loop_mode=loop_continuous
loop_start=76372
loop_xfade=23062
lovel=0
offset=27286
pitch_keycenter=c#6
release_start=300000
release_xfade=8000
sample=Violins2_trill_half_PP_D#6.opus
</region>

<region>
hikey=c#5
hivel=127
lokey=c5
loop_end=308522
loop_mode=loop_continuous
loop_start=76372
loop_xfade=23062
lovel=0
offset=22980
pitch_keycenter=c#5
release_start=300000
release_xfade=8000
sample=Violins2_trill_half_PP_D#5.opus
</region>

<region>
hikey=c#4
hivel=127
lokey=c4
loop_end=270022
loop_mode=loop_continuous
loop_start=66842
loop_xfade=20184
lovel=0
offset=22900
pitch_keycenter=c#4
release_start=300000
release_xfade=8000
sample=Violins2_trill_half_PP_D#4.opus
</region>

<region>
hikey=E7
hivel=127
lokey=a#6
loop_end=308522
loop_mode=loop_continuous
loop_start=76372
loop_xfade=23062
lovel=0
offset=4111
pitch_keycenter=a#6
release_start=300000
release_xfade=8000
sample=Violins2_trill_half_PP_C7.opus
</region>

<region>
hikey=b5
hivel=127
lokey=a#5
loop_end=308522
loop_mode=loop_continuous
loop_start=76372
loop_xfade=23062
lovel=0
offset=22184
pitch_keycenter=b5
release_start=300000
release_xfade=8000
sample=Violins2_trill_half_PP_C#6.opus
</region>

<region>
hikey=b4
hivel=127
lokey=a#4
loop_end=308522
loop_mode=loop_continuous
loop_start=76372
loop_xfade=23062
lovel=0
offset=22491
pitch_keycenter=b4
release_start=300000
release_xfade=8000
sample=Violins2_trill_half_PP_C#5.opus
</region>

<region>
hikey=b3
hivel=127
lokey=a#3
loop_end=295309
loop_mode=loop_continuous
loop_start=73101
loop_xfade=22074
lovel=0
offset=3812
pitch_keycenter=b3
release_start=300000
release_xfade=8000
sample=Violins2_trill_half_PP_C#4.opus
</region>

<region>
hikey=a6
hivel=127
lokey=g#6
loop_end=308522
loop_mode=loop_continuous
loop_start=76372
loop_xfade=23062
lovel=0
offset=17307
pitch_keycenter=a6
release_start=300000
release_xfade=8000
sample=Violins2_trill_half_PP_B6.opus
</region>

<region>
hikey=a5
hivel=127
lokey=g#5
loop_end=307208
loop_mode=loop_continuous
loop_start=76047
loop_xfade=22964
lovel=0
offset=19775
pitch_keycenter=a5
release_start=300000
release_xfade=8000
sample=Violins2_trill_half_PP_B5.opus
</region>

<region>
hikey=a4
hivel=127
lokey=g#4
loop_end=288456
loop_mode=loop_continuous
loop_start=71405
loop_xfade=21562
lovel=0
offset=12386
pitch_keycenter=a4
release_start=300000
release_xfade=8000
sample=Violins2_trill_half_PP_B4.opus
</region>

<region>
hikey=a3
hivel=127
lokey=g#3
loop_end=281297
loop_mode=loop_continuous
loop_start=69633
loop_xfade=21027
lovel=0
offset=23327
pitch_keycenter=a3
release_start=300000
release_xfade=8000
sample=Violins2_trill_half_PP_B3.opus
</region>

<region>
hikey=g6
hivel=127
lokey=f#6
loop_end=308522
loop_mode=loop_continuous
loop_start=76372
loop_xfade=23062
lovel=0
offset=27468
pitch_keycenter=g6
release_start=300000
release_xfade=8000
sample=Violins2_trill_half_PP_A6.opus
</region>

<region>
hikey=g5
hivel=127
lokey=f#5
loop_end=308379
loop_mode=loop_continuous
loop_start=76337
loop_xfade=23051
lovel=0
offset=22074
pitch_keycenter=g5
release_start=300000
release_xfade=8000
sample=Violins2_trill_half_PP_A5.opus
</region>

<region>
hikey=g4
hivel=127
lokey=f#4
loop_end=307280
loop_mode=loop_continuous
loop_start=76065
loop_xfade=22969
lovel=0
offset=20950
pitch_keycenter=g4
release_start=300000
release_xfade=8000
sample=Violins2_trill_half_PP_A4.opus
</region>

<region>
hivel=127
key=g3
loop_end=292167
loop_mode=loop_continuous
loop_start=76372
loop_xfade=23062
lovel=0
offset=21897
release_start=302191
release_xfade=8000
sample=Violins2_trill_half_PP_A3.opus
</region>
</group>

<group>
group_label=MF
seq_length=1
seq_position=1
xf_cccurve=gain
xfin_hicc1=85
xfin_locc1=42
xfout_hicc1=127
xfout_locc1=85

<region>
hikey=f6
hivel=127
lokey=e6
loop_end=305195
loop_mode=loop_continuous
loop_start=75549
loop_xfade=22813
lovel=0
offset=17041
pitch_keycenter=f6
release_start=300000
release_xfade=8000
sample=Violins2_trill_half_MF_G6.opus
</region>

<region>
hikey=f5
hivel=127
lokey=e5
loop_end=295402
loop_mode=loop_continuous
loop_start=73124
loop_xfade=22081
lovel=0
offset=7538
pitch_keycenter=f5
release_start=300000
release_xfade=8000
sample=Violins2_trill_half_MF_G5.opus
</region>

<region>
hikey=f4
hivel=127
lokey=e4
loop_end=270744
loop_mode=loop_continuous
loop_start=67020
loop_xfade=20238
lovel=0
offset=1781
pitch_keycenter=f4
release_start=300000
release_xfade=8000
sample=Violins2_trill_half_MF_G4.opus
</region>

<region>
hikey=d#6
hivel=127
lokey=d6
loop_end=307946
loop_mode=loop_continuous
loop_start=76229
loop_xfade=23019
lovel=0
offset=13229
pitch_keycenter=d#6
release_start=300000
release_xfade=8000
sample=Violins2_trill_half_MF_F6.opus
</region>

<region>
hikey=d#5
hivel=127
lokey=d5
loop_end=268862
loop_mode=loop_continuous
loop_start=66555
loop_xfade=20097
lovel=0
offset=4419
pitch_keycenter=d#5
release_start=300000
release_xfade=8000
sample=Violins2_trill_half_MF_F5.opus
</region>

<region>
hikey=d#4
hivel=127
lokey=d4
loop_end=271838
loop_mode=loop_continuous
loop_start=67291
loop_xfade=20320
lovel=0
offset=2639
pitch_keycenter=d#4
release_start=300000
release_xfade=8000
sample=Violins2_trill_half_MF_F4.opus
</region>

<region>
hikey=c#6
hivel=127
lokey=c6
loop_end=268105
loop_mode=loop_continuous
loop_start=66367
loop_xfade=20041
lovel=0
offset=2119
pitch_keycenter=c#6
release_start=300000
release_xfade=8000
sample=Violins2_trill_half_MF_D#6.opus
</region>

<region>
hikey=c#5
hivel=127
lokey=c5
loop_end=259386
loop_mode=loop_continuous
loop_start=64209
loop_xfade=19389
lovel=0
offset=5376
pitch_keycenter=c#5
release_start=300000
release_xfade=8000
sample=Violins2_trill_half_MF_D#5.opus
</region>

<region>
hikey=c#4
hivel=127
lokey=c4
loop_end=261195
loop_mode=loop_continuous
loop_start=64657
loop_xfade=19524
lovel=0
offset=4267
pitch_keycenter=c#4
release_start=300000
release_xfade=8000
sample=Violins2_trill_half_MF_D#4.opus
</region>

<region>
hikey=E7
hivel=127
lokey=a#6
loop_end=293881
loop_mode=loop_continuous
loop_start=72748
loop_xfade=21967
lovel=0
offset=6285
pitch_keycenter=a#6
release_start=300000
release_xfade=8000
sample=Violins2_trill_half_MF_C7.opus
</region>

<region>
hikey=b5
hivel=127
lokey=a#5
loop_end=259364
loop_mode=loop_continuous
loop_start=64203
loop_xfade=19387
lovel=0
offset=7182
pitch_keycenter=b5
release_start=300000
release_xfade=8000
sample=Violins2_trill_half_MF_C#6.opus
</region>

<region>
hikey=b4
hivel=127
lokey=a#4
loop_end=262614
loop_mode=loop_continuous
loop_start=65008
loop_xfade=19630
lovel=0
offset=2046
pitch_keycenter=b4
release_start=300000
release_xfade=8000
sample=Violins2_trill_half_MF_C#5.opus
</region>

<region>
hikey=b3
hivel=127
lokey=a#3
loop_end=262402
loop_mode=loop_continuous
loop_start=64955
loop_xfade=19614
lovel=0
offset=2426
pitch_keycenter=b3
release_start=300000
release_xfade=8000
sample=Violins2_trill_half_MF_C#4.opus
</region>

<region>
hikey=a6
hivel=127
lokey=g#6
loop_end=284398
loop_mode=loop_continuous
loop_start=70400
loop_xfade=21259
lovel=0
offset=14252
pitch_keycenter=a6
release_start=300000
release_xfade=8000
sample=Violins2_trill_half_MF_B6.opus
</region>

<region>
hikey=a5
hivel=127
lokey=g#5
loop_end=264448
loop_mode=loop_continuous
loop_start=65462
loop_xfade=19767
lovel=0
offset=6560
pitch_keycenter=a5
release_start=300000
release_xfade=8000
sample=Violins2_trill_half_MF_B5.opus
</region>

<region>
hikey=a4
hivel=127
lokey=g#4
loop_end=266572
loop_mode=loop_continuous
loop_start=65988
loop_xfade=19926
lovel=0
offset=5350
pitch_keycenter=a4
release_start=300000
release_xfade=8000
sample=Violins2_trill_half_MF_B4.opus
</region>

<region>
hikey=a3
hivel=127
lokey=g#3
loop_end=260972
loop_mode=loop_continuous
loop_start=64601
loop_xfade=19508
lovel=0
offset=4746
pitch_keycenter=a3
release_start=300000
release_xfade=8000
sample=Violins2_trill_half_MF_B3.opus
</region>

<region>
hikey=g6
hivel=127
lokey=f#6
loop_end=304685
loop_mode=loop_continuous
loop_start=75422
loop_xfade=22775
lovel=0
offset=19722
pitch_keycenter=g6
release_start=300000
release_xfade=8000
sample=Violins2_trill_half_MF_A6.opus
</region>

<region>
hikey=g5
hivel=127
lokey=f#5
loop_end=287010
loop_mode=loop_continuous
loop_start=71047
loop_xfade=21454
lovel=0
offset=2926
pitch_keycenter=g5
release_start=300000
release_xfade=8000
sample=Violins2_trill_half_MF_A5.opus
</region>

<region>
hikey=g4
hivel=127
lokey=f#4
loop_end=269998
loop_mode=loop_continuous
loop_start=66836
loop_xfade=20182
lovel=0
offset=998
pitch_keycenter=g4
release_start=300000
release_xfade=8000
sample=Violins2_trill_half_MF_A4.opus
</region>

<region>
hivel=127
key=g3
loop_end=261263
loop_mode=loop_continuous
loop_start=64673
loop_xfade=19529
lovel=0
offset=3147
release_start=300000
release_xfade=8000
sample=Violins2_trill_half_MF_A3.opus
</region>
</group>

<group>
group_label=FF
seq_length=1
seq_position=1
xf_cccurve=gain
xfin_hicc1=127
xfin_locc1=85
xfout_hicc1=127
xfout_locc1=127

<region>
hikey=f6
hivel=127
lokey=e6
loop_end=265459
loop_mode=loop_continuous
loop_start=65712
loop_xfade=19843
lovel=0
offset=3708
pitch_keycenter=f6
release_start=300000
release_xfade=8000
sample=Violins2_trill_half_FF_G6.opus
</region>

<region>
hikey=f5
hivel=127
lokey=e5
loop_end=263214
loop_mode=loop_continuous
loop_start=65156
loop_xfade=19675
lovel=0
offset=2748
pitch_keycenter=f5
release_start=300000
release_xfade=8000
sample=Violins2_trill_half_FF_G5.opus
</region>

<region>
hikey=f4
hivel=127
lokey=e4
loop_end=263063
loop_mode=loop_continuous
loop_start=65119
loop_xfade=19664
lovel=0
offset=2488
pitch_keycenter=f4
release_start=300000
release_xfade=8000
sample=Violins2_trill_half_FF_G4.opus
</region>

<region>
hikey=d#6
hivel=127
lokey=d6
loop_end=268342
loop_mode=loop_continuous
loop_start=66426
loop_xfade=20058
lovel=0
offset=4105
pitch_keycenter=d#6
release_start=300000
release_xfade=8000
sample=Violins2_trill_half_FF_F6.opus
</region>

<region>
hikey=d#5
hivel=127
lokey=d5
loop_end=260487
loop_mode=loop_continuous
loop_start=64481
loop_xfade=19471
lovel=0
offset=2102
pitch_keycenter=d#5
release_start=300000
release_xfade=8000
sample=Violins2_trill_half_FF_F5.opus
</region>

<region>
hikey=d#4
hivel=127
lokey=d4
loop_end=264961
loop_mode=loop_continuous
loop_start=65589
loop_xfade=19806
lovel=0
offset=7564
pitch_keycenter=d#4
release_start=300000
release_xfade=8000
sample=Violins2_trill_half_FF_F4.opus
</region>

<region>
hikey=c#6
hivel=127
lokey=c6
loop_end=266538
loop_mode=loop_continuous
loop_start=65979
loop_xfade=19924
lovel=0
offset=4812
pitch_keycenter=c#6
release_start=300000
release_xfade=8000
sample=Violins2_trill_half_FF_D#6.opus
</region>

<region>
hikey=c#5
hivel=127
lokey=c5
loop_end=267137
loop_mode=loop_continuous
loop_start=66127
loop_xfade=19968
lovel=0
offset=2616
pitch_keycenter=c#5
release_start=300000
release_xfade=8000
sample=Violins2_trill_half_FF_D#5.opus
</region>

<region>
hikey=c#4
hivel=127
lokey=c4
loop_end=263550
loop_mode=loop_continuous
loop_start=65240
loop_xfade=19700
lovel=0
offset=1406
pitch_keycenter=c#4
release_start=300000
release_xfade=8000
sample=Violins2_trill_half_FF_D#4.opus
</region>

<region>
hikey=E7
hivel=127
lokey=a#6
loop_end=263411
loop_mode=loop_continuous
loop_start=65205
loop_xfade=19690
lovel=0
offset=1550
pitch_keycenter=a#6
release_start=300000
release_xfade=8000
sample=Violins2_trill_half_FF_C7.opus
</region>

<region>
hikey=b5
hivel=127
lokey=a#5
loop_end=257472
loop_mode=loop_continuous
loop_start=63735
loop_xfade=19246
lovel=0
offset=5016
pitch_keycenter=b5
release_start=300000
release_xfade=8000
sample=Violins2_trill_half_FF_C#6.opus
</region>

<region>
hikey=b4
hivel=127
lokey=a#4
loop_end=261491
loop_mode=loop_continuous
loop_start=64730
loop_xfade=19546
lovel=0
offset=1275
pitch_keycenter=b4
release_start=300000
release_xfade=8000
sample=Violins2_trill_half_FF_C#5.opus
</region>

<region>
hikey=b3
hivel=127
lokey=a#3
loop_end=266561
loop_mode=loop_continuous
loop_start=65985
loop_xfade=19925
lovel=0
offset=1931
pitch_keycenter=b3
release_start=300000
release_xfade=8000
sample=Violins2_trill_half_FF_C#4.opus
</region>

<region>
hikey=a6
hivel=127
lokey=g#6
loop_end=256538
loop_mode=loop_continuous
loop_start=63504
loop_xfade=19176
lovel=0
offset=1439
pitch_keycenter=a6
release_start=300000
release_xfade=8000
sample=Violins2_trill_half_FF_B6.opus
</region>

<region>
hikey=a5
hivel=127
lokey=g#5
loop_end=266907
loop_mode=loop_continuous
loop_start=66070
loop_xfade=19951
lovel=0
offset=4208
pitch_keycenter=a5
release_start=300000
release_xfade=8000
sample=Violins2_trill_half_FF_B5.opus
</region>

<region>
hikey=a4
hivel=127
lokey=g#4
loop_end=264328
loop_mode=loop_continuous
loop_start=65432
loop_xfade=19758
lovel=0
offset=2027
pitch_keycenter=a4
release_start=300000
release_xfade=8000
sample=Violins2_trill_half_FF_B4.opus
</region>

<region>
hikey=a3
hivel=127
lokey=g#3
loop_end=265606
loop_mode=loop_continuous
loop_start=65749
loop_xfade=19854
lovel=0
offset=1533
pitch_keycenter=a3
release_start=300000
release_xfade=8000
sample=Violins2_trill_half_FF_B3.opus
</region>

<region>
hikey=g6
hivel=127
lokey=f#6
loop_end=263704
loop_mode=loop_continuous
loop_start=65278
loop_xfade=19712
lovel=0
offset=5439
pitch_keycenter=g6
release_start=300000
release_xfade=8000
sample=Violins2_trill_half_FF_A6.opus
</region>

<region>
hikey=g5
hivel=127
lokey=f#5
loop_end=260640
loop_mode=loop_continuous
loop_start=64519
loop_xfade=19483
lovel=0
offset=1787
pitch_keycenter=g5
release_start=300000
release_xfade=8000
sample=Violins2_trill_half_FF_A5.opus
</region>

<region>
hikey=g4
hivel=127
lokey=f#4
loop_end=266725
loop_mode=loop_continuous
loop_start=66026
loop_xfade=19938
lovel=0
offset=2005
pitch_keycenter=g4
release_start=300000
release_xfade=8000
sample=Violins2_trill_half_FF_A4.opus
</region>

<region>
hivel=127
key=g3
loop_end=267383
loop_mode=loop_continuous
loop_start=66188
loop_xfade=19987
lovel=0
offset=3725
release_start=300000
release_xfade=8000
sample=Violins2_trill_half_FF_A3.opus
</region>
</group>